PathFileType	4	(X/Y/Z)	TVC_20_BWA6_walk_RCNL2025.trc
DataRate	CameraRate	NumFrames	NumMarkers	Units	OrigDataRate	OrigDataStartFrame	OrigNumFrames
100	100	5	27	mm	100	149	238
Frame#	Time	R_Shoulder			L_Shoulder			C7			J_Notch			R_Elbow			L_Elbow			R_Wrist			L_Wrist			R_Asis			L_Asis			R_Psis			L_Psis			Sacral			Thoracic			Sternum			R_Thigh_Lateral			R_Knee_Lateral			R_Shank_Lateral			R_Ankle_Lateral			R_Heel			R_Toe			L_Thigh_Lateral			L_Knee_Lateral			L_Shank_Lateral			L_Ankle_Lateral			L_Heel			L_Toe		
		X1	Y1	Z1	X2	Y2	Z2	X3	Y3	Z3	X4	Y4	Z4	X5	Y5	Z5	X6	Y6	Z6	X7	Y7	Z7	X8	Y8	Z8	X9	Y9	Z9	X10	Y10	Z10	X11	Y11	Z11	X12	Y12	Z12	X13	Y13	Z13	X14	Y14	Z14	X15	Y15	Z15	X16	Y16	Z16	X17	Y17	Z17	X18	Y18	Z18	X19	Y19	Z19	X20	Y20	Z20	X21	Y21	Z21	X22	Y22	Z22	X23	Y23	Z23	X24	Y24	Z24	X25	Y25	Z25	X26	Y26	Z26	X27	Y27	Z27
149	1.48000000	705.600403	1365.626221	110.189491	687.500549	1390.665894	-253.194778	668.079956	1429.667480	-60.273251	786.747070	1296.593384	-69.575760	605.012024	1073.157837	213.458435	707.523315	1092.350464	-388.881989	775.878571	875.270752	218.090683	913.642029	937.277313	-343.017700	735.446777	963.587341	61.385609	727.262878	981.633057	-218.986938	581.131409	971.233948	-24.869593	565.090149	973.619873	-111.672409	573.110779	972.426910	-68.271001	555.587830	1204.645264	-73.760574	797.454102	1153.882446	-84.011406	786.537537	644.157410	136.494736	886.433838	475.491882	58.200642	900.794983	297.050690	112.708984	1008.982605	84.416199	44.487717	977.302612	51.340088	-10.664857	1162.328857	89.317528	39.857319	599.606873	627.520752	-281.537506	569.392212	467.567474	-200.154236	477.854126	307.079895	-253.266785	370.481110	89.399254	-159.923080	321.399353	93.276276	-120.889618	499.691925	35.871700	-126.279938
150	1.49000000	720.389160	1363.821411	112.257027	701.810242	1389.495117	-250.994110	682.568176	1427.982788	-58.093811	801.580627	1295.224121	-67.718010	619.289978	1071.280029	215.002747	722.421204	1091.156860	-386.545929	788.981873	872.512543	219.403000	928.809784	936.775055	-339.602753	752.006958	962.008118	62.240894	741.656738	980.413086	-218.166519	597.061768	969.500244	-22.767710	580.413269	972.040405	-109.382408	588.737518	970.770325	-66.075059	570.588013	1202.692871	-71.523735	812.756348	1152.691528	-82.624474	803.885132	643.089355	137.217056	902.825623	474.360596	59.316097	915.648376	295.029205	112.742447	1022.873962	82.413483	44.413433	991.140320	49.971493	-10.921029	1175.919312	86.312256	40.102856	610.507629	627.622925	-281.272156	579.629822	467.184906	-200.493149	484.743713	308.625763	-253.684875	372.613678	92.783699	-160.929077	323.576080	98.088158	-122.098404	500.311279	35.884861	-126.450592
151	1.50000000	735.331726	1362.146606	114.437325	716.275269	1388.573364	-248.696136	697.257141	1426.516968	-55.765697	816.611877	1294.088623	-65.747765	633.818237	1069.491211	216.603485	736.886536	1090.144653	-384.025665	802.375427	869.864746	220.730789	943.447357	936.250671	-336.263885	768.675537	960.761841	63.139202	756.401550	979.321045	-217.235352	613.148987	968.029846	-20.757149	595.967590	970.618591	-107.220039	604.558289	969.324219	-63.988594	585.780945	1200.966309	-69.341148	828.292419	1151.743164	-81.123192	821.707458	642.522400	137.948288	919.811768	473.646118	60.618462	930.325928	293.243042	112.947159	1034.274902	79.959358	44.125172	1002.116882	48.518127	-11.302659	1186.808105	81.443604	39.823910	621.966919	627.836426	-281.036285	590.525818	466.789825	-200.958740	492.205322	310.310730	-254.206207	375.172638	96.498993	-162.149536	326.208527	103.369659	-123.594528	500.985931	35.831135	-126.617409
152	1.51000000	750.432495	1360.614868	116.713799	730.891052	1387.904053	-246.316513	712.145081	1425.283325	-53.304749	831.830811	1293.190796	-63.681519	648.605530	1067.803711	218.247910	750.906860	1089.311768	-381.327606	816.075531	867.343140	222.073914	957.547363	935.696869	-333.026108	785.414062	959.864685	64.089516	771.482849	978.352905	-216.183624	629.359009	966.838135	-18.845945	611.721985	969.352600	-105.200150	620.540497	968.095367	-62.023047	601.148621	1199.488037	-67.221169	844.036621	1151.034424	-79.517479	839.858398	642.481445	138.768906	937.350403	473.368042	62.104584	944.953125	291.807465	113.376724	1043.511108	77.280533	43.695663	1010.575867	47.198315	-11.720678	1195.391479	74.988266	39.024010	634.070923	628.113281	-280.806763	602.222961	466.317535	-201.551590	500.352692	312.088654	-254.816254	378.275940	100.554115	-163.560379	329.428192	109.154251	-125.364197	501.697235	35.694118	-126.774925
153	1.52000000	765.692078	1359.239746	119.066330	745.648315	1387.487549	-243.873810	727.224731	1424.292358	-50.731316	847.221497	1292.531128	-61.539474	663.657898	1066.230469	219.922989	764.478333	1088.654663	-378.460754	830.093933	864.964111	223.429756	971.106476	935.102814	-329.911667	802.180359	959.327576	65.100174	786.872375	977.503784	-215.005768	645.653137	965.936890	-17.038490	627.637756	968.238647	-103.332153	636.645447	967.087769	-60.185322	616.667847	1198.277466	-65.169807	859.955872	1150.559082	-77.821701	858.188416	642.979553	139.706726	955.352356	473.524017	63.754890	959.618347	290.827667	114.067673	1050.931763	74.628944	43.193398	1016.918396	46.200562	-12.097449	1202.104248	67.429268	37.760929	646.896912	628.395508	-280.549683	614.877686	465.697357	-202.264633	509.323029	313.900726	-255.495407	382.057404	104.967049	-165.124649	333.391754	115.483780	-127.376389	502.435394	35.466644	-126.926262
